<?xml version="1.0" encoding="UTF-8"?>
<svg id="Layer_1" data-name="Layer 1" xmlns="http://www.w3.org/2000/svg" xmlns:xlink="http://www.w3.org/1999/xlink" viewBox="0 0 305.11 295.72">
  <defs>
    <style>
      .cls-1 {
        fill: url(#linear-gradient);
      }
    </style>
    <linearGradient id="linear-gradient" x1="39.32" y1="124.04" x2="224.6" y2="147.97" gradientUnits="userSpaceOnUse">
      <stop offset="0" stop-color="#99f3ff"/>
      <stop offset=".5" stop-color="#989dff"/>
      <stop offset="1" stop-color="#ffa1e3"/>
    </linearGradient>
  </defs>
  <rect width="305.11" height="295.72" rx="28.69" ry="28.69"/>
  <path class="cls-1" d="M129.48,121.21h-62.54c-13.48,0-24.95,6.48-29.25,19.71-.76,2.34-1.44,5.31-1.44,8.12,0,20.87,41.75,55.67,62.62,55.67,12.59,0,23.15-4.64,32.93-14.41-3.73,4.81-6.01,10.21-6.84,16.21-3.04,21.42,.75,36.18,11.84,39.78,10.77,3.5,24.69,7.12,31.65,7.12,20.87,0,23.2-47.48,11.45-62.79l-50.43-69.41Zm12.74-9.25l19.33-59.48c4.17-12.82,13.87-21.73,27.79-21.73,2.46,0,5.5,.27,8.17,1.14,19.85,6.45,40.04,56.91,33.59,76.76-3.89,11.98-11.56,20.59-23.88,26.86,5.72-2.06,11.56-2.56,17.53-1.49,21.31,3.73,34.18,11.89,34.18,23.55s-.85,25.68-3.01,32.3c-6.45,19.85-52.33,7.4-63.26-8.52l-50.43-69.41Z"/>
</svg>